<svg width="63" height="63" viewBox="0 0 63 63" fill="none" xmlns="http://www.w3.org/2000/svg">
<path d="M31.0578 62.2058C29.3917 62.2058 27.7187 62.0725 26.0888 61.8076C18.8944 60.646 12.3008 56.9379 7.52527 51.367C2.69792 45.7355 0.0390625 38.5391 0.0390625 31.102C0.0390625 13.9514 13.9548 0 31.0578 0C48.1607 0 62.0781 13.9532 62.0781 31.102C62.0781 38.6534 59.3468 45.9346 54.3848 51.6042C49.4711 57.2218 42.7204 60.8797 35.3758 61.9063C33.9549 62.1054 32.5011 62.2058 31.0578 62.2058ZM31.0578 2.07739C15.0961 2.07739 2.11089 15.0975 2.11089 31.102C2.11089 45.4308 12.3336 57.4832 26.4186 59.7562C29.2587 60.2149 32.2318 60.2478 35.0892 59.8479C49.2932 57.864 60.0046 45.5053 60.0046 31.102C60.0046 15.0975 47.0194 2.07739 31.056 2.07739H31.0578Z" fill="white"/>
<path d="M40.4489 13.0566H21.6695C16.4813 13.0566 12.2617 17.2876 12.2617 22.4897V39.7165C12.2617 44.9187 16.4813 49.1496 21.6695 49.1496H40.4489C45.6371 49.1496 49.8567 44.9187 49.8567 39.7165V22.4897C49.8567 17.2876 45.6371 13.0566 40.4489 13.0566ZM15.5801 22.4897C15.5801 19.1226 18.3114 16.3839 21.6695 16.3839H40.4489C43.807 16.3839 46.5383 19.1226 46.5383 22.4897V39.7165C46.5383 43.0836 43.807 45.8223 40.4489 45.8223H21.6695C18.3114 45.8223 15.5801 43.0836 15.5801 39.7165V22.4897Z" fill="white"/>
<path d="M31.0584 39.8777C35.884 39.8777 39.8101 35.941 39.8101 31.1024C39.8101 26.2638 35.884 22.3271 31.0584 22.3271C26.2328 22.3271 22.3066 26.2638 22.3066 31.1024C22.3066 35.941 26.2328 39.8777 31.0584 39.8777ZM31.0584 25.6562C34.0539 25.6562 36.49 28.0988 36.49 31.1024C36.49 34.106 34.0539 36.5486 31.0584 36.5486C28.0629 36.5486 25.6267 34.106 25.6267 31.1024C25.6267 28.0988 28.0629 25.6562 31.0584 25.6562Z" fill="white"/>
<path d="M40.6221 23.7432C41.9222 23.7432 42.9805 22.682 42.9805 21.3784C42.9805 20.0749 41.9222 19.0137 40.6221 19.0137C39.322 19.0137 38.2637 20.0749 38.2637 21.3784C38.2637 22.682 39.322 23.7432 40.6221 23.7432Z" fill="white"/>
</svg>
