<svg width="63" height="63" viewBox="0 0 63 63" fill="none" xmlns="http://www.w3.org/2000/svg">
<path d="M31.0186 62.2058C29.3525 62.2058 27.6796 62.0725 26.0497 61.8076C18.8553 60.646 12.2617 56.9379 7.48617 51.367C2.65882 45.7355 0 38.5391 0 31.102C0 13.9514 13.9157 0 31.0186 0C48.1215 0 62.0373 13.9532 62.0373 31.102C62.0373 38.6534 59.3059 45.9346 54.3439 51.6042C49.4302 57.2218 42.6795 60.8797 35.3349 61.9063C33.914 62.1054 32.4603 62.2058 31.0169 62.2058H31.0186ZM31.0186 2.07739C15.0569 2.07739 2.07182 15.0975 2.07182 31.102C2.07182 45.4308 12.2946 57.4832 26.3795 59.7562C29.2196 60.2149 32.1927 60.2461 35.0501 59.8479C49.2541 57.864 59.9655 45.5053 59.9655 31.102C59.9655 15.0975 46.9803 2.07739 31.0186 2.07739Z" fill="black"/>
<path d="M48.7416 20.0884C47.9095 20.9315 46.7561 21.4525 45.4784 21.4525C45.3162 21.4525 45.1539 21.4439 44.9968 21.4266C46.3297 20.625 47.3587 19.3699 47.8715 17.8725C47.8715 17.8725 47.8732 17.8725 47.8732 17.8708C47.9439 17.6699 48.0044 17.4674 48.0527 17.2579C46.9978 18.3884 45.5562 19.1536 43.9384 19.3353C43.6898 19.3648 43.4377 19.3786 43.1822 19.3786C43.1011 19.3786 43.0233 19.3769 42.9457 19.3717C42.3983 18.7952 41.7458 18.3191 41.0224 17.9694C40.2161 17.5747 39.3148 17.3428 38.3635 17.3133C38.2858 17.3081 38.2081 17.3064 38.127 17.3064C37.3207 17.3064 36.5472 17.4501 35.8324 17.715C35.6494 17.7825 35.4716 17.8552 35.2972 17.94C33.032 19.0047 31.4643 21.3123 31.4643 23.987C31.4643 24.5357 31.5316 25.0689 31.6542 25.5779C30.9602 25.5502 30.273 25.4827 29.5997 25.3823C29.3839 25.3476 29.168 25.3113 28.9539 25.2697C27.236 24.9495 25.5976 24.399 24.0748 23.6511C22.7126 22.9829 21.4419 22.1588 20.2868 21.1998C19.3148 20.3965 18.4257 19.4998 17.6315 18.5199C17.5969 18.4784 17.5624 18.4351 17.5296 18.3936C17.4829 18.4646 17.4398 18.5355 17.4001 18.61C16.8441 19.5846 16.5299 20.7116 16.5299 21.913C16.5299 21.9494 16.5299 21.9892 16.5317 22.0255C16.5455 22.9257 16.7354 23.7827 17.0755 24.5617C17.2205 24.9079 17.3966 25.2351 17.5986 25.545C18.1942 26.4642 19.0075 27.2294 19.9674 27.7591C20.0106 27.7868 20.0555 27.8094 20.1004 27.8301C20.0313 27.844 19.9605 27.8561 19.8897 27.863C19.6929 27.889 19.4891 27.9028 19.2854 27.9028C18.2633 27.9028 17.312 27.5826 16.5333 27.0373C16.5282 27.0944 16.5282 27.1532 16.5282 27.2121C16.5282 29.1198 17.3259 30.8406 18.6035 32.0542C19.598 33.0063 20.8842 33.6451 22.3137 33.8321C21.7992 34.0208 21.2433 34.1229 20.6649 34.1229C20.0382 34.1229 19.4374 34.0034 18.8883 33.7836C19.7067 36.4513 22.1463 38.4075 25.0537 38.4941C23.2772 40.3447 20.7823 41.4942 18.0216 41.4942C16.3055 41.4942 14.6929 41.0493 13.2944 40.2702C16.656 43.1872 21.0396 44.9496 25.8341 44.9496C36.4298 44.9496 45.0175 36.3388 45.0175 25.7146C45.0175 25.1295 44.9916 24.5513 44.9398 23.98C46.6923 23.2858 48.0821 21.868 48.7399 20.0901L48.7416 20.0884Z" fill="black"/>
</svg>
