<svg width="63" height="63" viewBox="0 0 63 63" fill="none" xmlns="http://www.w3.org/2000/svg">
<path d="M31.0187 62.2058C29.3526 62.2058 27.6796 62.0725 26.0497 61.8076C18.8553 60.646 12.2617 56.9379 7.48617 51.367C2.65882 45.7355 0 38.5391 0 31.102C0 13.9514 13.9157 0 31.0187 0C48.1216 0 62.039 13.9532 62.039 31.102C62.039 38.6534 59.3077 45.9346 54.3457 51.6042C49.432 57.2218 42.6813 60.8797 35.3367 61.9063C33.9158 62.1054 32.462 62.2058 31.0187 62.2058ZM31.0187 2.07739C15.057 2.07739 2.07182 15.0975 2.07182 31.102C2.07182 45.4308 12.2945 57.4832 26.3795 59.7562C29.2196 60.2149 32.1927 60.2478 35.0501 59.8479C49.2541 57.864 59.9655 45.5053 59.9655 31.102C59.9655 15.0975 46.9803 2.07739 31.0169 2.07739H31.0187Z" fill="black"/>
<path d="M35.1932 25.178V31.727H43.2734L41.994 40.5507H35.1932V60.878C33.8293 61.0684 32.4343 61.1671 31.0185 61.1671C29.3835 61.1671 27.7795 61.0355 26.2153 60.7828V40.5507H18.7637V31.727H26.2153V23.7152C26.2153 18.7433 30.2347 14.7114 35.195 14.7114V14.7166C35.2088 14.7166 35.2226 14.7114 35.2364 14.7114H43.2751V22.3407H38.023C36.4605 22.3407 35.195 23.6096 35.195 25.1763L35.1932 25.178Z" fill="black"/>
</svg>
