<svg width="63" height="63" viewBox="0 0 63 63" fill="none" xmlns="http://www.w3.org/2000/svg">
<path d="M31.1729 62.2058C29.5068 62.2058 27.8339 62.0725 26.204 61.8076C19.0096 60.646 12.416 56.9379 7.64047 51.367C2.81312 45.7355 0.154297 38.5391 0.154297 31.102C0.154297 13.9514 14.07 0 31.1729 0C48.2758 0 62.1916 13.9532 62.1916 31.102C62.1916 38.6534 59.4602 45.9346 54.4982 51.6042C49.5845 57.2218 42.8338 60.8797 35.4892 61.9063C34.0683 62.1054 32.6146 62.2058 31.1712 62.2058H31.1729ZM31.1729 2.07739C15.2112 2.07739 2.22612 15.0975 2.22612 31.102C2.22612 45.4308 12.4489 57.4832 26.5338 59.7562C29.3739 60.2149 32.347 60.2461 35.2044 59.8479C49.4084 57.864 60.1198 45.5053 60.1198 31.102C60.1198 15.0975 47.1346 2.07739 31.1729 2.07739Z" fill="white"/>
<path d="M48.8964 20.0883C48.0642 20.9313 46.9109 21.4524 45.6332 21.4524C45.4709 21.4524 45.3087 21.4438 45.1516 21.4264C46.4845 20.6249 47.5135 19.3698 48.0263 17.8724C48.0263 17.8724 48.0279 17.8724 48.0279 17.8706C48.0987 17.6698 48.1592 17.4673 48.2075 17.2578C47.1526 18.3883 45.7109 19.1534 44.0932 19.3352C43.8446 19.3646 43.5925 19.3785 43.337 19.3785C43.2558 19.3785 43.1781 19.3768 43.1004 19.3716C42.5531 18.7951 41.9006 18.319 41.1772 17.9693C40.3709 17.5746 39.4696 17.3426 38.5182 17.3132C38.4406 17.308 38.3629 17.3063 38.2818 17.3063C37.4755 17.3063 36.702 17.45 35.9872 17.7148C35.8042 17.7824 35.6264 17.8551 35.452 17.9399C33.1868 19.0045 31.6191 21.3122 31.6191 23.9868C31.6191 24.5356 31.6864 25.0688 31.809 25.5778C31.115 25.5501 30.4278 25.4826 29.7545 25.3821C29.5387 25.3475 29.3228 25.3112 29.1087 25.2696C27.3908 24.9494 25.7524 24.3988 24.2296 23.651C22.8674 22.9828 21.5967 22.1587 20.4416 21.1997C19.4696 20.3964 18.5805 19.4997 17.7863 18.5198C17.7517 18.4783 17.7171 18.435 17.6843 18.3935C17.6377 18.4644 17.5946 18.5354 17.5548 18.6098C16.9989 19.5845 16.6847 20.7115 16.6847 21.9129C16.6847 21.9493 16.6847 21.9891 16.6864 22.0254C16.7003 22.9256 16.8902 23.7826 17.2303 24.5616C17.3753 24.9078 17.5514 25.235 17.7534 25.5449C18.349 26.4641 19.1623 27.2293 20.1222 27.759C20.1654 27.7867 20.2103 27.8092 20.2551 27.83C20.1861 27.8439 20.1153 27.856 20.0445 27.8629C19.8477 27.8889 19.6439 27.9027 19.4402 27.9027C18.4181 27.9027 17.4668 27.5825 16.6881 27.0371C16.683 27.0943 16.683 27.1531 16.683 27.212C16.683 29.1197 17.4806 30.8405 18.7583 32.054C19.7527 33.0062 21.039 33.645 22.4685 33.8319C21.954 34.0206 21.3981 34.1228 20.8197 34.1228C20.193 34.1228 19.5922 34.0033 19.0431 33.7835C19.8615 36.4512 22.3011 38.4074 25.2085 38.494C23.4319 40.3446 20.9371 41.4941 18.1764 41.4941C16.4603 41.4941 14.8477 41.0491 13.4492 40.2701C16.8108 43.1871 21.1944 44.9495 25.9889 44.9495C36.5846 44.9495 45.1723 36.3387 45.1723 25.7145C45.1723 25.1294 45.1464 24.5512 45.0946 23.9799C46.847 23.2857 48.2368 21.8679 48.8947 20.09L48.8964 20.0883Z" fill="white"/>
</svg>
