<svg width="63" height="63" viewBox="0 0 63 63" fill="none" xmlns="http://www.w3.org/2000/svg">
<path d="M31.0187 62.2058C29.3526 62.2058 27.6796 62.0725 26.0498 61.8076C18.8554 60.646 12.2618 56.9379 7.48621 51.367C2.65886 45.7355 0 38.5391 0 31.102C0 13.9514 13.9158 0 31.0187 0C48.1216 0 62.0391 13.9532 62.0391 31.102C62.0391 38.6534 59.3077 45.9346 54.3457 51.6042C49.432 57.2218 42.6813 60.8797 35.3367 61.9063C33.9158 62.1054 32.4621 62.2058 31.0187 62.2058ZM31.0187 2.07739C15.057 2.07739 2.07182 15.0975 2.07182 31.102C2.07182 45.4308 12.2946 57.4832 26.3795 59.7562C29.2196 60.2149 32.1927 60.2478 35.0501 59.8479C49.2542 57.864 59.9655 45.5053 59.9655 31.102C59.9655 15.0975 46.9804 2.07739 31.017 2.07739H31.0187Z" fill="black"/>
<path d="M40.4093 13.0564H21.63C16.4418 13.0564 12.2222 17.2874 12.2222 22.4895V39.7163C12.2222 44.9184 16.4418 49.1494 21.63 49.1494H40.4093C45.5975 49.1494 49.8172 44.9184 49.8172 39.7163V22.4895C49.8172 17.2874 45.5975 13.0564 40.4093 13.0564ZM15.5405 22.4895C15.5405 19.1224 18.2719 16.3837 21.63 16.3837H40.4093C43.7674 16.3837 46.4988 19.1224 46.4988 22.4895V39.7163C46.4988 43.0834 43.7674 45.8221 40.4093 45.8221H21.63C18.2719 45.8221 15.5405 43.0834 15.5405 39.7163V22.4895Z" fill="black"/>
<path d="M31.0189 39.8772C35.8445 39.8772 39.7706 35.9405 39.7706 31.1019C39.7706 26.2633 35.8445 22.3267 31.0189 22.3267C26.1932 22.3267 22.2671 26.2633 22.2671 31.1019C22.2671 35.9405 26.1932 39.8772 31.0189 39.8772ZM31.0189 25.6557C34.0144 25.6557 36.4505 28.0983 36.4505 31.1019C36.4505 34.1055 34.0144 36.5481 31.0189 36.5481C28.0233 36.5481 25.5872 34.1055 25.5872 31.1019C25.5872 28.0983 28.0233 25.6557 31.0189 25.6557Z" fill="black"/>
<path d="M40.582 23.743C41.8821 23.743 42.9405 22.6818 42.9405 21.3782C42.9405 20.0746 41.8821 19.0134 40.582 19.0134C39.282 19.0134 38.2236 20.0746 38.2236 21.3782C38.2236 22.6818 39.282 23.743 40.582 23.743Z" fill="black"/>
</svg>
